<svg width="21" height="20" viewBox="0 0 21 20" fill="none" xmlns="http://www.w3.org/2000/svg">
<g clip-path="url(#clip0_20_3920)">
<path d="M19.2278 9.60548L10.8944 1.27215C10.7904 1.16867 10.6496 1.1106 10.5028 1.1106C10.356 1.1106 10.2152 1.16867 10.1111 1.27215L1.77778 9.60548C1.68677 9.71176 1.63921 9.84847 1.64461 9.98829C1.65001 10.1281 1.70797 10.2607 1.80691 10.3597C1.90586 10.4586 2.03849 10.5166 2.17831 10.522C2.31813 10.5274 2.45484 10.4798 2.56112 10.3888L10.5 2.44992L18.4389 10.3944C18.5452 10.4854 18.6819 10.5329 18.8217 10.5275C18.9615 10.5221 19.0942 10.4642 19.1931 10.3652C19.292 10.2663 19.35 10.1337 19.3554 9.99384C19.3608 9.85402 19.3132 9.71731 19.2222 9.61104L19.2278 9.60548Z" fill="white"/>
<path d="M16.0556 17.7778H13.2778V12.2223H7.72223V17.7778H4.94445V10L3.83334 11.1111V17.7778C3.83334 18.0725 3.95041 18.3551 4.15878 18.5635C4.36715 18.7719 4.64977 18.8889 4.94445 18.8889H8.83334V13.3334H12.1667V18.8889H16.0556C16.3503 18.8889 16.6329 18.7719 16.8412 18.5635C17.0496 18.3551 17.1667 18.0725 17.1667 17.7778V10.9778L16.0556 9.8667V17.7778Z" fill="white"/>
</g>
<defs>
<clipPath id="clip0_20_3920">
<rect width="20" height="20" fill="white" transform="translate(0.5)"/>
</clipPath>
</defs>
</svg>
