<svg width="24" height="25" viewBox="0 0 24 25" fill="none" xmlns="http://www.w3.org/2000/svg">
<path d="M12 11.0199C11.59 11.0199 11.25 10.6799 11.25 10.2699V6.93994C11.25 6.52994 11.59 6.18994 12 6.18994C12.41 6.18994 12.75 6.52994 12.75 6.93994V10.2699C12.75 10.6899 12.41 11.0199 12 11.0199Z" fill="white"/>
<path d="M12.02 20.85C9.44 20.85 6.87 20.44 4.42 19.62C3.51 19.32 2.82 18.67 2.52 17.85C2.22 17.03 2.32 16.09 2.81 15.27L4.08 13.15C4.36 12.68 4.61 11.8 4.61 11.25V9.14999C4.61 5.05999 7.93 1.73999 12.02 1.73999C16.11 1.73999 19.43 5.05999 19.43 9.14999V11.25C19.43 11.79 19.68 12.68 19.96 13.15L21.23 15.27C21.7 16.05 21.78 16.98 21.47 17.83C21.16 18.68 20.48 19.33 19.62 19.62C17.17 20.45 14.6 20.85 12.02 20.85ZM12.02 3.24999C8.76 3.24999 6.11 5.89999 6.11 9.15999V11.26C6.11 12.07 5.79 13.24 5.37 13.93L4.1 16.06C3.84 16.49 3.78 16.95 3.93 17.35C4.08 17.75 4.42 18.05 4.9 18.21C9.5 19.74 14.56 19.74 19.16 18.21C19.59 18.07 19.92 17.75 20.07 17.33C20.23 16.91 20.18 16.45 19.95 16.06L18.68 13.94C18.26 13.25 17.94 12.08 17.94 11.27V9.16999C17.93 5.89999 15.28 3.24999 12.02 3.24999Z" fill="white"/>
<path d="M12 23.3999C10.93 23.3999 9.88 22.9599 9.12 22.1999C8.36 21.4399 7.92 20.3899 7.92 19.3199H9.42C9.42 19.9999 9.7 20.6599 10.18 21.1399C10.66 21.6199 11.32 21.8999 12 21.8999C13.42 21.8999 14.58 20.7399 14.58 19.3199H16.08C16.08 21.5699 14.25 23.3999 12 23.3999Z" fill="white"/>
</svg>
