<svg width="21" height="21" viewBox="0 0 21 21" fill="none" xmlns="http://www.w3.org/2000/svg">
<path d="M15.5 6.46675C15.45 6.45842 15.3917 6.45842 15.3417 6.46675C14.1917 6.42508 13.275 5.48342 13.275 4.31675C13.275 3.12508 14.2333 2.16675 15.425 2.16675C16.6167 2.16675 17.575 3.13342 17.575 4.31675C17.5667 5.48342 16.65 6.42508 15.5 6.46675Z" stroke="#939090" stroke-linecap="round" stroke-linejoin="round"/>
<path d="M14.6417 12.5333C15.7833 12.725 17.0417 12.525 17.925 11.9333C19.1 11.15 19.1 9.86664 17.925 9.08331C17.0333 8.49164 15.7583 8.29163 14.6167 8.49163" stroke="#939090" stroke-linecap="round" stroke-linejoin="round"/>
<path d="M5.475 6.46675C5.525 6.45842 5.58333 6.45842 5.63333 6.46675C6.78333 6.42508 7.69999 5.48342 7.69999 4.31675C7.69999 3.12508 6.74166 2.16675 5.55 2.16675C4.35833 2.16675 3.39999 3.13342 3.39999 4.31675C3.40833 5.48342 4.325 6.42508 5.475 6.46675Z" stroke="#939090" stroke-linecap="round" stroke-linejoin="round"/>
<path d="M6.33333 12.5333C5.19166 12.725 3.93333 12.525 3.05 11.9333C1.875 11.15 1.875 9.86664 3.05 9.08331C3.94166 8.49164 5.21666 8.29163 6.35833 8.49163" stroke="#939090" stroke-linecap="round" stroke-linejoin="round"/>
<path d="M10.5 12.6916C10.45 12.6833 10.3917 12.6833 10.3417 12.6916C9.19168 12.6499 8.27501 11.7083 8.27501 10.5416C8.27501 9.34994 9.23334 8.3916 10.425 8.3916C11.6167 8.3916 12.575 9.35827 12.575 10.5416C12.5667 11.7083 11.65 12.6583 10.5 12.6916Z" stroke="#939090" stroke-linecap="round" stroke-linejoin="round"/>
<path d="M8.07501 15.3166C6.90001 16.0999 6.90001 17.3832 8.07501 18.1666C9.40834 19.0582 11.5917 19.0582 12.925 18.1666C14.1 17.3832 14.1 16.0999 12.925 15.3166C11.6 14.4332 9.40834 14.4332 8.07501 15.3166Z" stroke="#939090" stroke-linecap="round" stroke-linejoin="round"/>
</svg>
